<svg xmlns="http://www.w3.org/2000/svg" xmlns:xlink="http://www.w3.org/1999/xlink" version="1.1" x="0px" y="0px" viewBox="0 0 100 125" enable-background="new 0 0 100 100" xml:space="preserve"><path d="M50,5C25.1,5,5,25.1,5,50s20.1,45,45,45s45-20.1,45-45S74.9,5,50,5z M76.6,75.1l-1.5,1.5c-0.3,0.2-0.6,0.4-0.9,0.4  c0,0,0,0,0,0c-0.3,0-0.7-0.1-0.9-0.4L50,53.3L26.7,76.6c-0.2,0.2-0.6,0.4-0.9,0.4c-0.3,0-0.7-0.1-0.9-0.4l-1.5-1.5  c-0.5-0.5-0.5-1.3,0-1.8L46.7,50L23.4,26.7c-0.5-0.5-0.5-1.3,0-1.8l1.5-1.5c0.3-0.2,0.6-0.4,0.9-0.4c0.3,0,0.7,0.1,0.9,0.4L50,46.7  l23.3-23.3c0.2-0.2,0.6-0.4,0.9-0.4c0.3,0,0.7,0.1,0.9,0.4l1.5,1.5c0.5,0.5,0.5,1.3,0,1.8L53.3,50l23.3,23.3  C77.1,73.8,77.1,74.6,76.6,75.1z"/><text x="0" y="115" fill="#000000" font-size="5px" font-weight="bold" font-family="'Helvetica Neue', Helvetica, Arial-Unicode, Arial, Sans-serif">Created by Chang Kim</text><text x="0" y="120" fill="#000000" font-size="5px" font-weight="bold" font-family="'Helvetica Neue', Helvetica, Arial-Unicode, Arial, Sans-serif">from the Noun Project</text></svg>