<svg xmlns="http://www.w3.org/2000/svg" xmlns:xlink="http://www.w3.org/1999/xlink" version="1.1" x="0px" y="0px" viewBox="0 0 100 125" enable-background="new 0 0 100 100" xml:space="preserve"><g><g><g><g><g><g><g><path d="M52.524,57.215c0,2.66-2.165,4.823-4.823,4.823c-0.806,0-1.565-0.208-2.232-0.564l-11.625,8.988l-2.567-3.314         l11.694-9.034c-0.058-0.287-0.081-0.587-0.081-0.898c0-2.657,2.152-4.811,4.811-4.811c0.91,0,1.761,0.253,2.486,0.69         l15.584-10.577L52.374,56.029C52.466,56.409,52.524,56.801,52.524,57.215z"/><path d="M74.943,29.455c-0.288-0.748-0.437-1.266-0.437-1.266l6.951-5.49c0,0,1.035,1.864,2.647,3.59         c0.023,0.012,0.034,0.023,0.034,0.035c1.554,1.795,3.291,3.51,3.291,3.51l-6.122,5.893c0,0-0.496-0.195-1.197-0.553         l-2.797,2.521c4.027,5.881,6.399,12.993,6.399,20.67C83.714,78.599,67.302,95,47.08,95         c-20.233,0-36.634-16.401-36.634-36.634c0-17.69,12.545-32.456,29.222-35.886v-3.821c-2.209-0.633-3.787-1.277-3.787-1.277         l0.414-14.847c0,0,4.996,0.92,9.737,0.84c0.035,0,0.069,0,0.092,0c4.753,0.08,9.748-0.84,9.748-0.84l0.415,14.847         c0,0-1.507,0.61-3.637,1.231v3.545c7.562,1.151,14.375,4.627,19.668,9.667L74.943,29.455z M75.128,57.642         c0-15.676-12.694-28.371-28.37-28.371c-15.665,0-28.359,12.694-28.359,28.371C18.399,73.293,31.093,86,46.758,86         C62.434,86,75.128,73.293,75.128,57.642z"/><path d="M84.14,26.325c0-0.012-0.011-0.023-0.034-0.035C84.129,26.302,84.129,26.313,84.14,26.325z"/></g></g></g></g></g></g></g><text x="0" y="115" fill="#000000" font-size="5px" font-weight="bold" font-family="'Helvetica Neue', Helvetica, Arial-Unicode, Arial, Sans-serif">Created by Martha Ormiston</text><text x="0" y="120" fill="#000000" font-size="5px" font-weight="bold" font-family="'Helvetica Neue', Helvetica, Arial-Unicode, Arial, Sans-serif">from the Noun Project</text></svg>