<svg xmlns="http://www.w3.org/2000/svg" xmlns:xlink="http://www.w3.org/1999/xlink" version="1.1" x="0px" y="0px" viewBox="0 0 100 125" enable-background="new 0 0 100 100" xml:space="preserve"><g><g><path d="M56.499,41.125c1.102-1.103,2.564-1.444,3.25-0.758s0.344,2.148-0.758,3.25l-9.51,9.511    c-1.103,1.103-2.565,1.444-3.25,0.758s-0.344-2.148,0.759-3.25L56.499,41.125z"/></g><g><path d="M36.605,61.02c1.103-1.103,2.565-1.443,3.25-0.758c0.685,0.685,0.344,2.148-0.759,3.25l-9.509,9.51    c-1.103,1.102-2.565,1.443-3.25,0.759s-0.344-2.147,0.758-3.25L36.605,61.02z"/></g><g><path d="M74.256,23.369c1.103-1.103,2.565-1.444,3.251-0.759s0.344,2.147-0.758,3.25l-9.511,9.511    c-1.102,1.103-2.564,1.444-3.25,0.758s-0.344-2.148,0.759-3.25L74.256,23.369z"/></g><path d="M69.353,35.732c0.261,1.486-0.089,2.963-1.113,3.986l-4.898,4.9c-1.024,1.023-2.502,1.375-3.989,1.113l-3.482,3.482   c3.135,1.613,6.598,1.508,8.667-0.562l7.736-7.736c2.07-2.07,2.176-5.533,0.562-8.668L69.353,35.732z"/><path d="M54.259,40.691c-0.282-1.508,0.064-3.012,1.104-4.051l4.899-4.9c1.038-1.037,2.542-1.385,4.05-1.102l3.466-3.467   c-3.147-1.637-6.632-1.545-8.714,0.537l-7.735,7.734c-2.081,2.082-2.173,5.566-0.534,8.713L54.259,40.691z"/><path d="M50.391,54.693c0.313,1.539-0.019,3.07-1.064,4.117l-4.899,4.899c-1.045,1.045-2.577,1.377-4.117,1.064l-3.442,3.443   c3.136,1.613,6.599,1.508,8.668-0.562l7.736-7.737c2.07-2.07,2.175-5.533,0.562-8.668L50.391,54.693z"/><path d="M35.222,59.728c-0.334-1.559-0.008-3.117,1.05-4.174l4.899-4.9c1.059-1.059,2.615-1.383,4.174-1.051l3.432-3.43   c-3.147-1.637-6.633-1.545-8.713,0.535l-7.736,7.736c-2.08,2.08-2.173,5.566-0.535,8.713L35.222,59.728z"/></g><text x="0" y="115" fill="#000000" font-size="5px" font-weight="bold" font-family="'Helvetica Neue', Helvetica, Arial-Unicode, Arial, Sans-serif">Created by Hash Basheer</text><text x="0" y="120" fill="#000000" font-size="5px" font-weight="bold" font-family="'Helvetica Neue', Helvetica, Arial-Unicode, Arial, Sans-serif">from the Noun Project</text></svg>